# xmcd
#
# Track frame offsets: 
#        150
#        17215
#        35587
#        52922
#        74415
#        92057
#        109032
#        127542
#        143380
#        163632
#        182282
#        208295
#        239390
#        264217
#        307717
#        331752
#
# Disc length: 4762 seconds
#
# Revision: 0
# Processed by: cddbd v1.5.2PL0 Copyright (c) Steve Scherf et al.
# Submitted via: ExactAudioCopy v0.95b3
#
DISCID=c5129810
DTITLE=ICE MC - Cinema [RA000518]
DYEAR=1990
DGENRE=Hip-Hop
TTITLE0=Cinema
TTITLE1=Scream
TTITLE2=Peace
TTITLE3=Gone With The Wind
TTITLE4=Dolce Vita
TTITLE5=Easy
TTITLE6=I'm Sad
TTITLE7=OK Corral
TTITLE8=Rock Your Body
TTITLE9=Laika
TTITLE10=Easy (Extended Revolution Remix)
TTITLE11=Scream (Extended Zombie Remix)
TTITLE12=Cinema (The Oscar Mix)
TTITLE13=Megamix (DJ Mix - DJ Dirtycut)
TTITLE14=Dolce Vita (Extended Version)
TTITLE15=Peace (Extended Version)
EXTD=
EXTT0=
EXTT1=
EXTT2=
EXTT3=
EXTT4=
EXTT5=
EXTT6=
EXTT7=
EXTT8=
EXTT9=
EXTT10=
EXTT11=
EXTT12=
EXTT13=
EXTT14=
EXTT15=
PLAYORDER=
